<mxfile host="app.diagrams.net" modified="2021-01-17T04:00:42.361Z" agent="5.0 (Windows NT 10.0; Win64; x64) AppleWebKit/537.36 (KHTML, like Gecko) Chrome/87.0.4280.141 Safari/537.36" etag="8L11LvjD9S28aU4CEBal" version="14.2.3" type="github">
  <diagram id="8vs-kHtqtg8oLNfutw9K" name="Page-1">
    <mxGraphModel dx="564" dy="731" grid="1" gridSize="10" guides="1" tooltips="1" connect="1" arrows="1" fold="1" page="1" pageScale="1" pageWidth="850" pageHeight="1100" math="0" shadow="0">
      <root>
        <mxCell id="0" />
        <mxCell id="1" parent="0" />
        <mxCell id="Is64VMlIJqgsroUcS939-7" value="" style="rounded=0;whiteSpace=wrap;html=1;" vertex="1" parent="1">
          <mxGeometry x="90" y="90" width="530" height="500" as="geometry" />
        </mxCell>
        <mxCell id="Is64VMlIJqgsroUcS939-5" style="edgeStyle=orthogonalEdgeStyle;rounded=0;orthogonalLoop=1;jettySize=auto;html=1;entryX=0.875;entryY=0.5;entryDx=0;entryDy=0;entryPerimeter=0;" edge="1" parent="1" source="Is64VMlIJqgsroUcS939-1" target="Is64VMlIJqgsroUcS939-3">
          <mxGeometry relative="1" as="geometry" />
        </mxCell>
        <mxCell id="Is64VMlIJqgsroUcS939-1" value="Staff" style="shape=umlActor;verticalLabelPosition=bottom;verticalAlign=top;html=1;outlineConnect=0;" vertex="1" parent="1">
          <mxGeometry x="20" y="250" width="30" height="60" as="geometry" />
        </mxCell>
        <mxCell id="Is64VMlIJqgsroUcS939-3" value="" style="ellipse;shape=cloud;whiteSpace=wrap;html=1;" vertex="1" parent="1">
          <mxGeometry x="70" y="240" width="120" height="80" as="geometry" />
        </mxCell>
        <mxCell id="Is64VMlIJqgsroUcS939-6" value="Internet" style="text;html=1;strokeColor=none;fillColor=none;align=center;verticalAlign=middle;whiteSpace=wrap;rounded=0;" vertex="1" parent="1">
          <mxGeometry x="110" y="270" width="40" height="20" as="geometry" />
        </mxCell>
        <mxCell id="Is64VMlIJqgsroUcS939-49" style="edgeStyle=orthogonalEdgeStyle;rounded=0;orthogonalLoop=1;jettySize=auto;html=1;entryX=0;entryY=0.5;entryDx=0;entryDy=0;" edge="1" parent="1" source="Is64VMlIJqgsroUcS939-10" target="Is64VMlIJqgsroUcS939-34">
          <mxGeometry relative="1" as="geometry" />
        </mxCell>
        <mxCell id="Is64VMlIJqgsroUcS939-10" value="" style="rounded=0;whiteSpace=wrap;html=1;" vertex="1" parent="1">
          <mxGeometry x="210" y="255" width="80" height="50" as="geometry" />
        </mxCell>
        <mxCell id="Is64VMlIJqgsroUcS939-11" value="Login" style="text;html=1;strokeColor=none;fillColor=none;align=center;verticalAlign=middle;whiteSpace=wrap;rounded=0;" vertex="1" parent="1">
          <mxGeometry x="230" y="270" width="40" height="20" as="geometry" />
        </mxCell>
        <mxCell id="Is64VMlIJqgsroUcS939-12" value="" style="rounded=0;whiteSpace=wrap;html=1;" vertex="1" parent="1">
          <mxGeometry x="210" y="180" width="80" height="50" as="geometry" />
        </mxCell>
        <mxCell id="Is64VMlIJqgsroUcS939-13" value="Register" style="text;html=1;strokeColor=none;fillColor=none;align=center;verticalAlign=middle;whiteSpace=wrap;rounded=0;" vertex="1" parent="1">
          <mxGeometry x="230" y="195" width="40" height="20" as="geometry" />
        </mxCell>
        <mxCell id="Is64VMlIJqgsroUcS939-14" value="" style="rounded=0;whiteSpace=wrap;html=1;" vertex="1" parent="1">
          <mxGeometry x="110" y="330" width="80" height="50" as="geometry" />
        </mxCell>
        <mxCell id="Is64VMlIJqgsroUcS939-15" value="Website" style="text;html=1;strokeColor=none;fillColor=none;align=center;verticalAlign=middle;whiteSpace=wrap;rounded=0;" vertex="1" parent="1">
          <mxGeometry x="130" y="345" width="40" height="20" as="geometry" />
        </mxCell>
        <mxCell id="Is64VMlIJqgsroUcS939-16" value="" style="rounded=0;whiteSpace=wrap;html=1;" vertex="1" parent="1">
          <mxGeometry x="110" y="390" width="80" height="50" as="geometry" />
        </mxCell>
        <mxCell id="Is64VMlIJqgsroUcS939-17" value="Mobile App" style="text;html=1;strokeColor=none;fillColor=none;align=center;verticalAlign=middle;whiteSpace=wrap;rounded=0;" vertex="1" parent="1">
          <mxGeometry x="130" y="405" width="40" height="20" as="geometry" />
        </mxCell>
        <mxCell id="Is64VMlIJqgsroUcS939-18" value="" style="endArrow=none;html=1;exitX=0.875;exitY=0.5;exitDx=0;exitDy=0;exitPerimeter=0;" edge="1" parent="1" source="Is64VMlIJqgsroUcS939-3">
          <mxGeometry width="50" height="50" relative="1" as="geometry">
            <mxPoint x="170" y="280" as="sourcePoint" />
            <mxPoint x="210" y="280" as="targetPoint" />
          </mxGeometry>
        </mxCell>
        <mxCell id="Is64VMlIJqgsroUcS939-19" value="" style="endArrow=classic;html=1;dashed=1;" edge="1" parent="1">
          <mxGeometry width="50" height="50" relative="1" as="geometry">
            <mxPoint x="190" y="355" as="sourcePoint" />
            <mxPoint x="240" y="305" as="targetPoint" />
          </mxGeometry>
        </mxCell>
        <mxCell id="Is64VMlIJqgsroUcS939-20" value="" style="endArrow=classic;html=1;entryX=0.5;entryY=1;entryDx=0;entryDy=0;dashed=1;" edge="1" parent="1" target="Is64VMlIJqgsroUcS939-10">
          <mxGeometry width="50" height="50" relative="1" as="geometry">
            <mxPoint x="190" y="415" as="sourcePoint" />
            <mxPoint x="240" y="365" as="targetPoint" />
          </mxGeometry>
        </mxCell>
        <mxCell id="Is64VMlIJqgsroUcS939-21" value="" style="endArrow=none;html=1;entryX=0.5;entryY=1;entryDx=0;entryDy=0;" edge="1" parent="1" target="Is64VMlIJqgsroUcS939-12">
          <mxGeometry width="50" height="50" relative="1" as="geometry">
            <mxPoint x="250" y="255" as="sourcePoint" />
            <mxPoint x="300" y="205" as="targetPoint" />
          </mxGeometry>
        </mxCell>
        <mxCell id="Is64VMlIJqgsroUcS939-22" value="&amp;lt;&amp;lt;extend&amp;gt;&amp;gt;" style="text;html=1;strokeColor=none;align=center;verticalAlign=middle;whiteSpace=wrap;rounded=0;fillColor=#ffffff;" vertex="1" parent="1">
          <mxGeometry x="200" y="330" width="40" height="20" as="geometry" />
        </mxCell>
        <mxCell id="Is64VMlIJqgsroUcS939-23" value="&amp;lt;&amp;lt;extend&amp;gt;&amp;gt;" style="text;html=1;strokeColor=none;align=center;verticalAlign=middle;whiteSpace=wrap;rounded=0;fillColor=#ffffff;" vertex="1" parent="1">
          <mxGeometry x="200" y="370" width="40" height="20" as="geometry" />
        </mxCell>
        <mxCell id="Is64VMlIJqgsroUcS939-24" value="" style="endArrow=classic;html=1;entryX=0.5;entryY=1;entryDx=0;entryDy=0;dashed=1;" edge="1" parent="1" target="Is64VMlIJqgsroUcS939-25">
          <mxGeometry width="50" height="50" relative="1" as="geometry">
            <mxPoint x="230" y="180" as="sourcePoint" />
            <mxPoint x="250" y="160" as="targetPoint" />
          </mxGeometry>
        </mxCell>
        <mxCell id="Is64VMlIJqgsroUcS939-25" value="" style="rounded=0;whiteSpace=wrap;html=1;" vertex="1" parent="1">
          <mxGeometry x="90" y="110" width="80" height="50" as="geometry" />
        </mxCell>
        <mxCell id="Is64VMlIJqgsroUcS939-26" value="Validate Registration" style="text;html=1;strokeColor=none;fillColor=none;align=center;verticalAlign=middle;whiteSpace=wrap;rounded=0;" vertex="1" parent="1">
          <mxGeometry x="110" y="125" width="40" height="20" as="geometry" />
        </mxCell>
        <mxCell id="Is64VMlIJqgsroUcS939-27" value="&amp;lt;&amp;lt;include&amp;gt;&amp;gt;" style="text;html=1;strokeColor=none;align=center;verticalAlign=middle;whiteSpace=wrap;rounded=0;fillColor=#ffffff;" vertex="1" parent="1">
          <mxGeometry x="150" y="170" width="40" height="20" as="geometry" />
        </mxCell>
        <mxCell id="Is64VMlIJqgsroUcS939-33" value="" style="rounded=0;whiteSpace=wrap;html=1;" vertex="1" parent="1">
          <mxGeometry x="365" y="255" width="80" height="50" as="geometry" />
        </mxCell>
        <mxCell id="Is64VMlIJqgsroUcS939-34" value="Maintain Records" style="text;html=1;strokeColor=none;fillColor=none;align=center;verticalAlign=middle;whiteSpace=wrap;rounded=0;" vertex="1" parent="1">
          <mxGeometry x="385" y="270" width="40" height="20" as="geometry" />
        </mxCell>
        <mxCell id="Is64VMlIJqgsroUcS939-37" value="" style="rounded=0;whiteSpace=wrap;html=1;" vertex="1" parent="1">
          <mxGeometry x="305" y="140" width="80" height="50" as="geometry" />
        </mxCell>
        <mxCell id="Is64VMlIJqgsroUcS939-38" value="Add Record" style="text;html=1;strokeColor=none;fillColor=none;align=center;verticalAlign=middle;whiteSpace=wrap;rounded=0;" vertex="1" parent="1">
          <mxGeometry x="325" y="155" width="40" height="20" as="geometry" />
        </mxCell>
        <mxCell id="Is64VMlIJqgsroUcS939-39" value="" style="rounded=0;whiteSpace=wrap;html=1;" vertex="1" parent="1">
          <mxGeometry x="440" y="140" width="80" height="50" as="geometry" />
        </mxCell>
        <mxCell id="Is64VMlIJqgsroUcS939-40" value="Modify record" style="text;html=1;strokeColor=none;fillColor=none;align=center;verticalAlign=middle;whiteSpace=wrap;rounded=0;" vertex="1" parent="1">
          <mxGeometry x="460" y="155" width="40" height="20" as="geometry" />
        </mxCell>
        <mxCell id="Is64VMlIJqgsroUcS939-41" value="" style="rounded=0;whiteSpace=wrap;html=1;" vertex="1" parent="1">
          <mxGeometry x="520" y="255" width="80" height="50" as="geometry" />
        </mxCell>
        <mxCell id="Is64VMlIJqgsroUcS939-42" value="Delete Record" style="text;html=1;strokeColor=none;fillColor=none;align=center;verticalAlign=middle;whiteSpace=wrap;rounded=0;" vertex="1" parent="1">
          <mxGeometry x="540" y="270" width="40" height="20" as="geometry" />
        </mxCell>
        <mxCell id="Is64VMlIJqgsroUcS939-43" value="" style="rounded=0;whiteSpace=wrap;html=1;" vertex="1" parent="1">
          <mxGeometry x="460" y="340" width="80" height="50" as="geometry" />
        </mxCell>
        <mxCell id="Is64VMlIJqgsroUcS939-44" value="Maintain Class Records" style="text;html=1;strokeColor=none;fillColor=none;align=center;verticalAlign=middle;whiteSpace=wrap;rounded=0;" vertex="1" parent="1">
          <mxGeometry x="480" y="360" width="40" height="15" as="geometry" />
        </mxCell>
        <mxCell id="Is64VMlIJqgsroUcS939-45" value="" style="rounded=0;whiteSpace=wrap;html=1;" vertex="1" parent="1">
          <mxGeometry x="365" y="340" width="80" height="50" as="geometry" />
        </mxCell>
        <mxCell id="Is64VMlIJqgsroUcS939-46" value="Maintain Student Records" style="text;html=1;strokeColor=none;fillColor=none;align=center;verticalAlign=middle;whiteSpace=wrap;rounded=0;" vertex="1" parent="1">
          <mxGeometry x="385" y="355" width="40" height="20" as="geometry" />
        </mxCell>
        <mxCell id="Is64VMlIJqgsroUcS939-47" value="" style="rounded=0;whiteSpace=wrap;html=1;" vertex="1" parent="1">
          <mxGeometry x="270" y="340" width="80" height="50" as="geometry" />
        </mxCell>
        <mxCell id="Is64VMlIJqgsroUcS939-48" value="Maintain Course Records" style="text;html=1;strokeColor=none;fillColor=none;align=center;verticalAlign=middle;whiteSpace=wrap;rounded=0;" vertex="1" parent="1">
          <mxGeometry x="290" y="355" width="40" height="20" as="geometry" />
        </mxCell>
        <mxCell id="Is64VMlIJqgsroUcS939-51" value="" style="endArrow=classic;html=1;dashed=1;entryX=1;entryY=0.5;entryDx=0;entryDy=0;exitX=0;exitY=0.5;exitDx=0;exitDy=0;" edge="1" parent="1" source="Is64VMlIJqgsroUcS939-41" target="Is64VMlIJqgsroUcS939-33">
          <mxGeometry width="50" height="50" relative="1" as="geometry">
            <mxPoint x="480" y="280" as="sourcePoint" />
            <mxPoint x="530" y="230" as="targetPoint" />
          </mxGeometry>
        </mxCell>
        <mxCell id="Is64VMlIJqgsroUcS939-52" value="" style="endArrow=classic;html=1;dashed=1;entryX=0.5;entryY=1;entryDx=0;entryDy=0;exitX=0;exitY=0.5;exitDx=0;exitDy=0;" edge="1" parent="1" target="Is64VMlIJqgsroUcS939-37">
          <mxGeometry width="50" height="50" relative="1" as="geometry">
            <mxPoint x="400" y="253.57" as="sourcePoint" />
            <mxPoint x="325" y="253.57" as="targetPoint" />
          </mxGeometry>
        </mxCell>
        <mxCell id="Is64VMlIJqgsroUcS939-53" value="" style="endArrow=classic;html=1;dashed=1;entryX=0.5;entryY=1;entryDx=0;entryDy=0;exitX=0.5;exitY=0;exitDx=0;exitDy=0;" edge="1" parent="1" source="Is64VMlIJqgsroUcS939-33" target="Is64VMlIJqgsroUcS939-39">
          <mxGeometry width="50" height="50" relative="1" as="geometry">
            <mxPoint x="425" y="240" as="sourcePoint" />
            <mxPoint x="350" y="240" as="targetPoint" />
          </mxGeometry>
        </mxCell>
        <mxCell id="Is64VMlIJqgsroUcS939-54" value="&amp;lt;&amp;lt;include&amp;gt;&amp;gt;" style="text;html=1;strokeColor=none;align=center;verticalAlign=middle;whiteSpace=wrap;rounded=0;fillColor=#ffffff;" vertex="1" parent="1">
          <mxGeometry x="345" y="215" width="40" height="20" as="geometry" />
        </mxCell>
        <mxCell id="Is64VMlIJqgsroUcS939-55" value="&amp;lt;&amp;lt;include&amp;gt;&amp;gt;" style="text;html=1;strokeColor=none;align=center;verticalAlign=middle;whiteSpace=wrap;rounded=0;fillColor=#ffffff;" vertex="1" parent="1">
          <mxGeometry x="420" y="215" width="40" height="20" as="geometry" />
        </mxCell>
        <mxCell id="Is64VMlIJqgsroUcS939-56" value="&amp;lt;&amp;lt;extend&amp;gt;&amp;gt;" style="text;html=1;strokeColor=none;align=center;verticalAlign=middle;whiteSpace=wrap;rounded=0;fillColor=#ffffff;" vertex="1" parent="1">
          <mxGeometry x="463" y="285" width="40" height="20" as="geometry" />
        </mxCell>
        <mxCell id="Is64VMlIJqgsroUcS939-58" value="" style="endArrow=classic;html=1;exitX=0.25;exitY=1;exitDx=0;exitDy=0;entryX=0.5;entryY=0;entryDx=0;entryDy=0;" edge="1" parent="1" source="Is64VMlIJqgsroUcS939-33" target="Is64VMlIJqgsroUcS939-47">
          <mxGeometry width="50" height="50" relative="1" as="geometry">
            <mxPoint x="270" y="350" as="sourcePoint" />
            <mxPoint x="320" y="300" as="targetPoint" />
          </mxGeometry>
        </mxCell>
        <mxCell id="Is64VMlIJqgsroUcS939-59" value="" style="endArrow=classic;html=1;exitX=0.5;exitY=1;exitDx=0;exitDy=0;entryX=0.5;entryY=0;entryDx=0;entryDy=0;" edge="1" parent="1" source="Is64VMlIJqgsroUcS939-33" target="Is64VMlIJqgsroUcS939-45">
          <mxGeometry width="50" height="50" relative="1" as="geometry">
            <mxPoint x="395" y="315" as="sourcePoint" />
            <mxPoint x="320" y="350" as="targetPoint" />
          </mxGeometry>
        </mxCell>
        <mxCell id="Is64VMlIJqgsroUcS939-60" value="" style="endArrow=classic;html=1;exitX=0.75;exitY=1;exitDx=0;exitDy=0;entryX=0.5;entryY=0;entryDx=0;entryDy=0;" edge="1" parent="1" source="Is64VMlIJqgsroUcS939-33" target="Is64VMlIJqgsroUcS939-43">
          <mxGeometry width="50" height="50" relative="1" as="geometry">
            <mxPoint x="405" y="325" as="sourcePoint" />
            <mxPoint x="330" y="360" as="targetPoint" />
          </mxGeometry>
        </mxCell>
        <mxCell id="Is64VMlIJqgsroUcS939-61" value="" style="endArrow=none;html=1;entryX=0.5;entryY=1;entryDx=0;entryDy=0;exitX=0.5;exitY=0;exitDx=0;exitDy=0;" edge="1" parent="1" source="Is64VMlIJqgsroUcS939-62" target="Is64VMlIJqgsroUcS939-10">
          <mxGeometry width="50" height="50" relative="1" as="geometry">
            <mxPoint x="270" y="350" as="sourcePoint" />
            <mxPoint x="320" y="300" as="targetPoint" />
          </mxGeometry>
        </mxCell>
        <mxCell id="Is64VMlIJqgsroUcS939-62" value="" style="rounded=0;whiteSpace=wrap;html=1;" vertex="1" parent="1">
          <mxGeometry x="210" y="525" width="80" height="50" as="geometry" />
        </mxCell>
        <mxCell id="Is64VMlIJqgsroUcS939-63" value="Register Student for classes" style="text;html=1;strokeColor=none;fillColor=none;align=center;verticalAlign=middle;whiteSpace=wrap;rounded=0;" vertex="1" parent="1">
          <mxGeometry x="220" y="540" width="60" height="20" as="geometry" />
        </mxCell>
        <mxCell id="Is64VMlIJqgsroUcS939-67" value="" style="rounded=0;whiteSpace=wrap;html=1;" vertex="1" parent="1">
          <mxGeometry x="270" y="425" width="80" height="95" as="geometry" />
        </mxCell>
        <mxCell id="Is64VMlIJqgsroUcS939-66" value="Course Name, description, ID, credit hours, prerequisite course" style="text;html=1;strokeColor=none;fillColor=none;align=center;verticalAlign=middle;whiteSpace=wrap;rounded=0;" vertex="1" parent="1">
          <mxGeometry x="272" y="462.5" width="80" height="20" as="geometry" />
        </mxCell>
        <mxCell id="Is64VMlIJqgsroUcS939-69" value="" style="endArrow=classic;html=1;exitX=0.5;exitY=1;exitDx=0;exitDy=0;entryX=0.5;entryY=0;entryDx=0;entryDy=0;dashed=1;" edge="1" parent="1" source="Is64VMlIJqgsroUcS939-47" target="Is64VMlIJqgsroUcS939-67">
          <mxGeometry width="50" height="50" relative="1" as="geometry">
            <mxPoint x="230" y="430" as="sourcePoint" />
            <mxPoint x="280" y="380" as="targetPoint" />
          </mxGeometry>
        </mxCell>
        <mxCell id="Is64VMlIJqgsroUcS939-70" value="" style="rounded=0;whiteSpace=wrap;html=1;" vertex="1" parent="1">
          <mxGeometry x="365" y="425" width="80" height="95" as="geometry" />
        </mxCell>
        <mxCell id="Is64VMlIJqgsroUcS939-71" value="Course Name, description, ID, credit hours, prerequisite course" style="text;html=1;strokeColor=none;fillColor=none;align=center;verticalAlign=middle;whiteSpace=wrap;rounded=0;" vertex="1" parent="1">
          <mxGeometry x="367" y="462.5" width="80" height="20" as="geometry" />
        </mxCell>
        <mxCell id="Is64VMlIJqgsroUcS939-72" value="" style="endArrow=classic;html=1;exitX=0.5;exitY=1;exitDx=0;exitDy=0;entryX=0.5;entryY=0;entryDx=0;entryDy=0;dashed=1;" edge="1" parent="1" target="Is64VMlIJqgsroUcS939-70">
          <mxGeometry width="50" height="50" relative="1" as="geometry">
            <mxPoint x="405" y="390" as="sourcePoint" />
            <mxPoint x="375" y="380" as="targetPoint" />
          </mxGeometry>
        </mxCell>
        <mxCell id="Is64VMlIJqgsroUcS939-73" value="" style="rounded=0;whiteSpace=wrap;html=1;" vertex="1" parent="1">
          <mxGeometry x="459" y="425" width="80" height="95" as="geometry" />
        </mxCell>
        <mxCell id="Is64VMlIJqgsroUcS939-74" value="Course Name, description, ID, credit hours, prerequisite course" style="text;html=1;strokeColor=none;fillColor=none;align=center;verticalAlign=middle;whiteSpace=wrap;rounded=0;" vertex="1" parent="1">
          <mxGeometry x="461" y="462.5" width="80" height="20" as="geometry" />
        </mxCell>
        <mxCell id="Is64VMlIJqgsroUcS939-75" value="" style="endArrow=classic;html=1;exitX=0.5;exitY=1;exitDx=0;exitDy=0;entryX=0.5;entryY=0;entryDx=0;entryDy=0;dashed=1;" edge="1" parent="1" target="Is64VMlIJqgsroUcS939-73">
          <mxGeometry width="50" height="50" relative="1" as="geometry">
            <mxPoint x="499" y="390" as="sourcePoint" />
            <mxPoint x="469" y="380" as="targetPoint" />
          </mxGeometry>
        </mxCell>
      </root>
    </mxGraphModel>
  </diagram>
</mxfile>
